<svg width="549" height="144" viewBox="0 0 549 144" fill="none" xmlns="http://www.w3.org/2000/svg">
<path d="M28.5002 121.003C28.5002 121.003 28.5 80.0015 28.5 51.5016C28.5 23.0017 73.5 24.0017 73.5 51.5016C73.5 79.0016 73.5002 93.5017 73.5002 121.002" stroke="black" stroke-width="45" stroke-linecap="round"/>
<path d="M73.5002 121.003C73.5002 121.003 73.5 80.0015 73.5 51.5016C73.5 23.0017 118.5 24.0017 118.5 51.5016C118.5 79.0016 118.5 93.5017 118.5 121.002" stroke="black" stroke-width="45" stroke-linecap="round"/>
<path d="M209.512 119.5C209.512 119.5 211.012 119.5 236.511 119.5C262.011 119.5 262.011 74.5 236.511 74.5" stroke="black" stroke-width="45" stroke-linecap="round"/>
<path d="M255.624 29.5C255.624 29.5 254.124 29.5 228.624 29.5C203.125 29.5 203.125 74.4998 228.624 74.4998H238" stroke="black" stroke-width="45" stroke-linecap="round"/>
<path d="M163.5 121.003C163.5 121.003 163.5 58.9798 163.5 30.0033" stroke="black" stroke-width="45" stroke-linecap="round"/>
<path d="M480.251 30.4805C480.251 58.9881 480.25 71.3089 480.254 93.4447C480.258 115.581 489.352 122.467 526.251 120.008" stroke="black" stroke-width="45" stroke-linecap="round" stroke-linejoin="round"/>
<path d="M389.503 56.5C389.503 85.0076 389.499 72.3284 389.503 94.4642C389.507 116.6 398.601 123.487 435.5 121.027" stroke="black" stroke-width="45" stroke-linecap="round" stroke-linejoin="round"/>
<path d="M434.5 75.5C434.5 75.5 404.511 75.5 390.5 75.5" stroke="black" stroke-width="45" stroke-linecap="round"/>
<path d="M389.502 95.5C389.502 66.9924 389.498 79.6716 389.502 57.5358C389.506 35.3999 398.6 28.5132 435.499 30.9728" stroke="black" stroke-width="45" stroke-linecap="round" stroke-linejoin="round"/>
<path d="M300.5 121.003C300.5 121.003 300.5 80.0015 300.5 51.5016C300.5 23.0017 345.5 24.0017 345.5 51.5016C345.5 79.0016 345.5 93.5017 345.5 121.002" stroke="black" stroke-width="45" stroke-linecap="round"/>
<path d="M344.5 75.5C344.5 75.5 314.511 75.5 300.5 75.5" stroke="black" stroke-width="45" stroke-linecap="round"/>
<path d="M22.5002 114.003C22.5002 114.003 22.5 73.0015 22.5 44.5016C22.5 16.0017 67.5 17.0017 67.5 44.5016C67.5 72.0016 67.5002 86.5017 67.5002 114.002" stroke="black" stroke-width="45" stroke-linecap="round"/>
<path d="M67.5002 114.003C67.5002 114.003 67.5 73.0015 67.5 44.5016C67.5 16.0017 112.5 17.0017 112.5 44.5016C112.5 72.0016 112.5 86.5017 112.5 114.002" stroke="black" stroke-width="45" stroke-linecap="round"/>
<path d="M203.512 112.5C203.512 112.5 205.012 112.5 230.511 112.5C256.011 112.5 256.011 67.5 230.511 67.5" stroke="black" stroke-width="45" stroke-linecap="round"/>
<path d="M249.624 22.5C249.624 22.5 248.124 22.5 222.624 22.5C197.125 22.5 197.125 67.4998 222.624 67.4998H232" stroke="black" stroke-width="45" stroke-linecap="round"/>
<path d="M157.5 114.003C157.5 114.003 157.5 51.9798 157.5 23.0033" stroke="black" stroke-width="45" stroke-linecap="round"/>
<path d="M474.251 23.4805C474.251 51.9881 474.25 64.3089 474.254 86.4447C474.258 108.581 483.352 115.467 520.251 113.008" stroke="black" stroke-width="45" stroke-linecap="round" stroke-linejoin="round"/>
<path d="M383.503 49.5C383.503 78.0076 383.499 65.3284 383.503 87.4642C383.507 109.6 392.601 116.487 429.5 114.027" stroke="black" stroke-width="45" stroke-linecap="round" stroke-linejoin="round"/>
<path d="M428.5 68.5C428.5 68.5 398.511 68.5 384.5 68.5" stroke="black" stroke-width="45" stroke-linecap="round"/>
<path d="M383.502 88.5C383.502 59.9924 383.498 72.6716 383.502 50.5358C383.506 28.3999 392.6 21.5132 429.499 23.9728" stroke="black" stroke-width="45" stroke-linecap="round" stroke-linejoin="round"/>
<path d="M294.5 114.003C294.5 114.003 294.5 73.0015 294.5 44.5016C294.5 16.0017 339.5 17.0017 339.5 44.5016C339.5 72.0016 339.5 86.5017 339.5 114.002" stroke="black" stroke-width="45" stroke-linecap="round"/>
<path d="M338.5 68.5C338.5 68.5 308.511 68.5 294.5 68.5" stroke="black" stroke-width="45" stroke-linecap="round"/>
<path d="M22.5002 113.003L22.5 43.5016C22.5 15.0017 67.5 16.0017 67.5 43.5016M67.5 43.5016L67.5002 113.002M67.5 43.5016L67.5002 113.003M67.5 43.5016C67.5 15.0017 112.5 16.0017 112.5 43.5016L112.5 113.002" stroke="white" stroke-width="22" stroke-linecap="round"/>
<path d="M203.512 111.5L230.511 111.5C256.011 111.5 256.011 66.5 230.511 66.5M249.624 21.5L222.624 21.5C197.125 21.5 197.125 66.4998 222.624 66.4998H232" stroke="white" stroke-width="22" stroke-linecap="round"/>
<path d="M157.5 113.003C157.5 113.003 157.5 50.9798 157.5 22.0033" stroke="white" stroke-width="22" stroke-linecap="round"/>
<path d="M474.251 22.4805C474.251 50.9881 474.25 63.3089 474.254 85.4447C474.258 107.581 483.352 114.467 520.251 112.008" stroke="white" stroke-width="22" stroke-linecap="round" stroke-linejoin="round"/>
<path d="M383.503 48.5C383.503 77.0076 383.499 64.3284 383.503 86.4642C383.507 108.6 392.601 115.487 429.5 113.027M428.5 67.5H384.5M383.502 87.5C383.502 58.9924 383.498 71.6716 383.502 49.5358C383.506 27.3999 392.6 20.5132 429.499 22.9728" stroke="white" stroke-width="22" stroke-linecap="round" stroke-linejoin="round"/>
<path d="M294.5 113.003L294.5 43.5016C294.5 15.0017 339.5 16.0017 339.5 43.5016L339.5 113.002M338.5 67.5H294.5" stroke="white" stroke-width="22" stroke-linecap="round"/>
</svg>
